<svg xmlns="http://www.w3.org/2000/svg" xmlns:xlink="http://www.w3.org/1999/xlink" version="1.1" viewBox="0 0 2350 2100" style="background: #ffffff"><defs joint-selector="defs"></defs><g joint-selector="layers"  transform="matrix(1,0,0,1,0,0)"><g ></g><g ><!--z-index:1--><!--z-index:2--><!--z-index:3--><!--z-index:4--><!--z-index:5--><!--z-index:6--><!--z-index:7--><!--z-index:8--><!--z-index:9--><!--z-index:10--><!--z-index:11--><!--z-index:12--><!--z-index:13--><!--z-index:14--><!--z-index:15--><g   id="j_92"  transform="translate(20,2056)"><g id="v-1306"><text  id="v-1307" font-size="24px" xml:space="preserve" y="0.8em" font-weight="normal" text-anchor="start" fill="#444444" pointer-events="none" display="block" font-family="Open Sans, Tahoma, Arial"><tspan dy="0"  display="block">martes, 7 de abril de 2026, 5:09 p. m. hora estándar de Perú</tspan></text></g></g><!--z-index:16--><g   id="j_91"  transform="translate(20,2010)"><g id="v-1304"><text  id="v-1305" font-size="36px" xml:space="preserve" y="0.8em" font-weight="normal" text-anchor="start" fill="#444444" pointer-events="none" display="block" font-family="Open Sans, Tahoma, Arial"><tspan dy="0"  display="block">System Context View: Foundly</tspan></text></g></g><!--z-index:17--><g   id="j_93"  transform="translate(225,159)" style=""><g  id="v-1311" style="opacity: 1;"><rect  x="0" y="160" width="400" height="240" rx="70" id="v-1313" stroke-width="2" pointer-events="visiblePainted" fill="#08427b" stroke="#073b6f" stroke-dasharray=""></rect><circle  cx="200" cy="88.88888888888889" r="88.88888888888889" id="v-1312" stroke-width="2" pointer-events="visiblePainted" fill="#08427b" stroke="#073b6f" stroke-dasharray=""></circle><line  x1="80" y1="266.6666666666667" x2="80" y2="400" id="v-1319" stroke="#073b6f" stroke-width="1" stroke-dasharray=""></line><line  x1="320" y1="266.6666666666667" x2="320" y2="400" id="v-1320" stroke="#073b6f" stroke-width="1" stroke-dasharray=""></line><text  id="v-1314" font-size="33.599999999999994px" xml:space="preserve" y="216.9" font-weight="bold" text-anchor="middle" pointer-events="visible" font-family="Open Sans, Tahoma, Arial" fill="#ffffff" dominant-baseline="hanging" transform="matrix(1,0,0,1,200,0)"><tspan dy="0" >Emprendedores</tspan></text><text  id="v-1315" font-size="16.799999999999997px" xml:space="preserve" y="258.5" text-anchor="middle" font-family="Open Sans, Tahoma, Arial" fill="#ffffff" dominant-baseline="hanging" transform="matrix(1,0,0,1,200,0)" style="display: block;"><tspan dy="0" >[Person]</tspan></text><text  id="v-1316" font-size="24px" xml:space="preserve" y="290.3" text-anchor="middle" font-family="Open Sans, Tahoma, Arial" fill="#ffffff" dominant-baseline="hanging" transform="matrix(1,0,0,1,200,0)" style="display: block;"><tspan dy="0" >Usuarios que crean y</tspan><tspan dy="1.2em" x="0" >gestionan proyectos.</tspan></text><g  id="v-1317" font-weight="normal" text-anchor="middle" color="#ffffff" transform="matrix(1,0,0,1,197.5,368)" display="none"><g ></g><g ></g><g ></g><g ></g></g><image  id="v-1318"></image></g></g><!--z-index:18--><g   id="j_94"  transform="translate(225,859)" style=""><g  id="v-1324" style="opacity: 1;"><rect  x="0" y="160" width="400" height="240" rx="70" id="v-1326" stroke-width="2" pointer-events="visiblePainted" fill="#08427b" stroke="#073b6f" stroke-dasharray=""></rect><circle  cx="200" cy="88.88888888888889" r="88.88888888888889" id="v-1325" stroke-width="2" pointer-events="visiblePainted" fill="#08427b" stroke="#073b6f" stroke-dasharray=""></circle><line  x1="80" y1="266.6666666666667" x2="80" y2="400" id="v-1332" stroke="#073b6f" stroke-width="1" stroke-dasharray=""></line><line  x1="320" y1="266.6666666666667" x2="320" y2="400" id="v-1333" stroke="#073b6f" stroke-width="1" stroke-dasharray=""></line><text  id="v-1327" font-size="33.599999999999994px" xml:space="preserve" y="216.9" font-weight="bold" text-anchor="middle" pointer-events="visible" font-family="Open Sans, Tahoma, Arial" fill="#ffffff" dominant-baseline="hanging" transform="matrix(1,0,0,1,200,0)"><tspan dy="0" >Colaboradores</tspan></text><text  id="v-1328" font-size="16.799999999999997px" xml:space="preserve" y="258.5" text-anchor="middle" font-family="Open Sans, Tahoma, Arial" fill="#ffffff" dominant-baseline="hanging" transform="matrix(1,0,0,1,200,0)" style="display: block;"><tspan dy="0" >[Person]</tspan></text><text  id="v-1329" font-size="24px" xml:space="preserve" y="290.3" text-anchor="middle" font-family="Open Sans, Tahoma, Arial" fill="#ffffff" dominant-baseline="hanging" transform="matrix(1,0,0,1,200,0)" style="display: block;"><tspan dy="0" >Usuarios que participan en</tspan><tspan dy="1.2em" x="0" >proyectos.</tspan></text><g  id="v-1330" font-weight="normal" text-anchor="middle" color="#ffffff" transform="matrix(1,0,0,1,197.5,368)" display="none"><g ></g><g ></g><g ></g><g ></g></g><image  id="v-1331"></image></g></g><!--z-index:19--><g   id="j_95"  transform="translate(1700,309)" style=""><g  id="v-1337" style="opacity: 1;"><rect  id="v-1338" rx="20" ry="20" stroke-width="2" pointer-events="visiblePainted" fill="#999999" stroke="#8a8a8a" stroke-dasharray="" width="450" height="300"></rect><text  id="v-1339" font-size="33.599999999999994px" xml:space="preserve" y="72.5" font-weight="bold" text-anchor="middle" pointer-events="visible" font-family="Open Sans, Tahoma, Arial" fill="#ffffff" dominant-baseline="hanging" transform="matrix(1,0,0,1,225,0)"><tspan dy="0" >Stripe</tspan></text><text  id="v-1340" font-size="16.799999999999997px" xml:space="preserve" y="114.1" text-anchor="middle" font-family="Open Sans, Tahoma, Arial" fill="#ffffff" dominant-baseline="hanging" transform="matrix(1,0,0,1,225,0)" style="display: block;"><tspan dy="0" >[Software System]</tspan></text><text  id="v-1341" font-size="24px" xml:space="preserve" y="145.89999999999998" text-anchor="middle" font-family="Open Sans, Tahoma, Arial" fill="#ffffff" dominant-baseline="hanging" transform="matrix(1,0,0,1,225,0)" style="display: block;"><tspan dy="0" >Pasarela de pago utilizada para</tspan><tspan dy="1.2em" x="0" >procesar contribuciones y</tspan><tspan dy="1.2em" x="0" >suscripciones.</tspan></text><g  id="v-1342" color="#ffffff" transform="matrix(1,0,0,1,222.5,268)" display="none"><g ></g><g ></g><g ></g><g ></g></g><image  id="v-1343"></image></g></g><!--z-index:20--><g   id="j_96"  transform="translate(1700,909)" style=""><g  id="v-1347" style="opacity: 1;"><rect  id="v-1348" rx="20" ry="20" stroke-width="2" pointer-events="visiblePainted" fill="#999999" stroke="#8a8a8a" stroke-dasharray="" width="450" height="300"></rect><text  id="v-1349" font-size="33.599999999999994px" xml:space="preserve" y="86.9" font-weight="bold" text-anchor="middle" pointer-events="visible" font-family="Open Sans, Tahoma, Arial" fill="#ffffff" dominant-baseline="hanging" transform="matrix(1,0,0,1,225,0)"><tspan dy="0" >Cloudinary</tspan></text><text  id="v-1350" font-size="16.799999999999997px" xml:space="preserve" y="128.5" text-anchor="middle" font-family="Open Sans, Tahoma, Arial" fill="#ffffff" dominant-baseline="hanging" transform="matrix(1,0,0,1,225,0)" style="display: block;"><tspan dy="0" >[Software System]</tspan></text><text  id="v-1351" font-size="24px" xml:space="preserve" y="160.3" text-anchor="middle" font-family="Open Sans, Tahoma, Arial" fill="#ffffff" dominant-baseline="hanging" transform="matrix(1,0,0,1,225,0)" style="display: block;"><tspan dy="0" >Servicio para almacenamiento de</tspan><tspan dy="1.2em" x="0" >imágenes y archivos.</tspan></text><g  id="v-1352" color="#ffffff" transform="matrix(1,0,0,1,222.5,268)" display="none"><g ></g><g ></g><g ></g><g ></g></g><image  id="v-1353"></image></g></g><!--z-index:21--><g   id="j_97"  transform="translate(1700,1509)" style=""><g  id="v-1357" style="opacity: 1;"><rect  id="v-1358" rx="20" ry="20" stroke-width="2" pointer-events="visiblePainted" fill="#999999" stroke="#8a8a8a" stroke-dasharray="" width="450" height="300"></rect><text  id="v-1359" font-size="33.599999999999994px" xml:space="preserve" y="86.9" font-weight="bold" text-anchor="middle" pointer-events="visible" font-family="Open Sans, Tahoma, Arial" fill="#ffffff" dominant-baseline="hanging" transform="matrix(1,0,0,1,225,0)"><tspan dy="0" >Auth0</tspan></text><text  id="v-1360" font-size="16.799999999999997px" xml:space="preserve" y="128.5" text-anchor="middle" font-family="Open Sans, Tahoma, Arial" fill="#ffffff" dominant-baseline="hanging" transform="matrix(1,0,0,1,225,0)" style="display: block;"><tspan dy="0" >[Software System]</tspan></text><text  id="v-1361" font-size="24px" xml:space="preserve" y="160.3" text-anchor="middle" font-family="Open Sans, Tahoma, Arial" fill="#ffffff" dominant-baseline="hanging" transform="matrix(1,0,0,1,225,0)" style="display: block;"><tspan dy="0" >Servicio externo de autenticación y</tspan><tspan dy="1.2em" x="0" >gestión de identidad.</tspan></text><g  id="v-1362" color="#ffffff" transform="matrix(1,0,0,1,222.5,268)" display="none"><g ></g><g ></g><g ></g><g ></g></g><image  id="v-1363"></image></g></g><!--z-index:22--><g   id="j_98"  transform="translate(200,1559)" style=""><g  id="v-1367" style="opacity: 1;"><rect  id="v-1368" rx="20" ry="20" stroke-width="2" pointer-events="visiblePainted" fill="#999999" stroke="#8a8a8a" stroke-dasharray="" width="450" height="300"></rect><text  id="v-1369" font-size="33.599999999999994px" xml:space="preserve" y="86.9" font-weight="bold" text-anchor="middle" pointer-events="visible" font-family="Open Sans, Tahoma, Arial" fill="#ffffff" dominant-baseline="hanging" transform="matrix(1,0,0,1,225,0)"><tspan dy="0" >IoT Devices</tspan></text><text  id="v-1370" font-size="16.799999999999997px" xml:space="preserve" y="128.5" text-anchor="middle" font-family="Open Sans, Tahoma, Arial" fill="#ffffff" dominant-baseline="hanging" transform="matrix(1,0,0,1,225,0)" style="display: block;"><tspan dy="0" >[Software System]</tspan></text><text  id="v-1371" font-size="24px" xml:space="preserve" y="160.3" text-anchor="middle" font-family="Open Sans, Tahoma, Arial" fill="#ffffff" dominant-baseline="hanging" transform="matrix(1,0,0,1,225,0)" style="display: block;"><tspan dy="0" >Sensores físicos o simulados que</tspan><tspan dy="1.2em" x="0" >capturan datos ambientales.</tspan></text><g  id="v-1372" color="#ffffff" transform="matrix(1,0,0,1,222.5,268)" display="none"><g ></g><g ></g><g ></g><g ></g></g><image  id="v-1373"></image></g></g><!--z-index:23--><g   id="j_99"  transform="translate(950,909)" style=""><g  id="v-1377" style="opacity: 1;"><rect  id="v-1378" rx="20" ry="20" stroke-width="2" pointer-events="visiblePainted" fill="#999999" stroke="#8a8a8a" stroke-dasharray="" width="450" height="300"></rect><text  id="v-1379" font-size="33.599999999999994px" xml:space="preserve" y="72.5" font-weight="bold" text-anchor="middle" pointer-events="visible" font-family="Open Sans, Tahoma, Arial" fill="#ffffff" dominant-baseline="hanging" transform="matrix(1,0,0,1,225,0)"><tspan dy="0" >Foundly</tspan></text><text  id="v-1380" font-size="16.799999999999997px" xml:space="preserve" y="114.1" text-anchor="middle" font-family="Open Sans, Tahoma, Arial" fill="#ffffff" dominant-baseline="hanging" transform="matrix(1,0,0,1,225,0)" style="display: block;"><tspan dy="0" >[Software System]</tspan></text><text  id="v-1381" font-size="24px" xml:space="preserve" y="145.89999999999998" text-anchor="middle" font-family="Open Sans, Tahoma, Arial" fill="#ffffff" dominant-baseline="hanging" transform="matrix(1,0,0,1,225,0)" style="display: block;"><tspan dy="0" >Plataforma colaborativa con IoT</tspan><tspan dy="1.2em" x="0" >para gestión de proyectos y</tspan><tspan dy="1.2em" x="0" >financiamiento</tspan></text><g  id="v-1382" color="#ffffff" transform="matrix(1,0,0,1,210,268)" display="none"><g  transform="translate(5 0)"><svg xmlns="http://www.w3.org/2000/svg" width="20" height="20" fill="currentColor" viewBox="0 0 16 16"><path fill-rule="evenodd" d="M6.5 12a5.5 5.5 0 1 0 0-11 5.5 5.5 0 0 0 0 11zM13 6.5a6.5 6.5 0 1 1-13 0 6.5 6.5 0 0 1 13 0z"></path><path d="M10.344 11.742c.03.04.062.078.098.115l3.85 3.85a1 1 0 0 0 1.415-1.414l-3.85-3.85a1.007 1.007 0 0 0-.115-.1 6.538 6.538 0 0 1-1.398 1.4z"></path><path fill-rule="evenodd" d="M6.5 3a.5.5 0 0 1 .5.5V6h2.5a.5.5 0 0 1 0 1H7v2.5a.5.5 0 0 1-1 0V7H3.5a.5.5 0 0 1 0-1H6V3.5a.5.5 0 0 1 .5-.5z"></path></svg></g><g ></g><g ></g><g ></g></g><image  id="v-1383"></image></g></g><!--z-index:24--><g   id="j_100" ><path  stroke="#444444" d="M 625 546 L 1014 909" id="v-1396" stroke-width="2" stroke-dasharray="8 8" fill="none" style="opacity: 1;"></path><path  fill="black" stroke="black" d="M 0 0 0 0" transform="matrix(0.7310621232427924,0.6823109056432707,-0.6823109056432707,0.7310621232427924,625,545.6699829101562)"></path><path  fill="#444444" stroke="#444444" d="M 20 0 L 0 10 L 20 20 z" id="v-1398" transform="matrix(-0.7310621232427924,-0.6823109056432706,0.6823109056432706,-0.7310621232427924,1007.4668822931827,916.3106101716731)" style="opacity: 1;"></path><path  d="M 625 546 L 1014 909" id="v-1397" fill="none" style="cursor: auto; pointer-events: visiblepainted;"></path><g ><g id="v-1390"  label-idx="0" cursor="move" transform="matrix(1,0,0,1,819.5,727.5)" style="cursor: default; opacity: 1;"><rect joint-selector="rect" id="v-1393" fill="#ffffff" rx="3" ry="3" pointer-events="none" width="114.10575103759766" height="62.710039138793945" transform="matrix(1,0,0,1,-57.1,-31.3)"></rect><text joint-selector="text" id="v-1392" font-size="24px" xml:space="preserve" y="0.8em" fill="#444444" text-anchor="middle" pointer-events="none" font-family="Open Sans, Tahoma, Arial" font-weight="normal" transform="matrix(1,0,0,1,0,-23.9)"><tspan dy="0" >Gestionan</tspan><tspan dy="1.2em" x="0" >proyectos</tspan></text></g><g id="v-1391"  label-idx="1" cursor="move" transform="matrix(1,0,0,1,809.5,753.9000244140625)" style="cursor: default; opacity: 1;"><rect joint-selector="rect" id="v-1395" fill="#ffffff" rx="3" ry="3"  width="0" height="0" transform="matrix(1,0,0,1,0,0)" display="none"></rect><text joint-selector="text" id="v-1394" fill="#000000" font-size="14" text-anchor="middle" pointer-events="none"></text></g></g><g  display="none" style="display: none;"></g><g  id="v-1400" display="none"><g  id="v-1388"><path  end="source" d="M 26 0 L 0 13 L 26 26 z"></path></g><g  id="v-1389"><path  end="target" d="M 26 0 L 0 13 L 26 26 z"></path></g></g><g  id="v-1399" display="none"><g  id="v-1387" transform="translate(654.2447106280937, 573.2900513059075) "><g  event="remove"><circle r="11"></circle><path transform="scale(.8) translate(-16, -16)" d="M24.778,21.419 19.276,15.917 24.777,10.415 21.949,7.585 16.447,13.087 10.945,7.585 8.117,10.415 13.618,15.917 8.116,21.419 10.946,24.248 16.447,18.746 21.948,24.248z"></path><title>Remove link.</title></g><g  event="link:options"><circle r="11" transform="translate(25)"></circle><path fill="white" transform="scale(.55) translate(29, -16)" d="M31.229,17.736c0.064-0.571,0.104-1.148,0.104-1.736s-0.04-1.166-0.104-1.737l-4.377-1.557c-0.218-0.716-0.504-1.401-0.851-2.05l1.993-4.192c-0.725-0.91-1.549-1.734-2.458-2.459l-4.193,1.994c-0.647-0.347-1.334-0.632-2.049-0.849l-1.558-4.378C17.165,0.708,16.588,0.667,16,0.667s-1.166,0.041-1.737,0.105L12.707,5.15c-0.716,0.217-1.401,0.502-2.05,0.849L6.464,4.005C5.554,4.73,4.73,5.554,4.005,6.464l1.994,4.192c-0.347,0.648-0.632,1.334-0.849,2.05l-4.378,1.557C0.708,14.834,0.667,15.412,0.667,16s0.041,1.165,0.105,1.736l4.378,1.558c0.217,0.715,0.502,1.401,0.849,2.049l-1.994,4.193c0.725,0.909,1.549,1.733,2.459,2.458l4.192-1.993c0.648,0.347,1.334,0.633,2.05,0.851l1.557,4.377c0.571,0.064,1.148,0.104,1.737,0.104c0.588,0,1.165-0.04,1.736-0.104l1.558-4.377c0.715-0.218,1.399-0.504,2.049-0.851l4.193,1.993c0.909-0.725,1.733-1.549,2.458-2.458l-1.993-4.193c0.347-0.647,0.633-1.334,0.851-2.049L31.229,17.736zM16,20.871c-2.69,0-4.872-2.182-4.872-4.871c0-2.69,2.182-4.872,4.872-4.872c2.689,0,4.871,2.182,4.871,4.872C20.871,18.689,18.689,20.871,16,20.871z"></path><title>Link options.</title></g></g></g></g><!--z-index:25--><g   id="j_101" ><path  stroke="#444444" d="M 625 1059 L 950 1059" id="v-1413" stroke-width="2" stroke-dasharray="8 8" fill="none" style="opacity: 1;"></path><path  fill="black" stroke="black" d="M 0 0 0 0" transform="matrix(1,0,0,1,625,1059)"></path><path  fill="#444444" stroke="#444444" d="M 20 0 L 0 10 L 20 20 z" id="v-1415" transform="matrix(-1,1.2246467991473532e-16,-1.2246467991473532e-16,-1,950,1069)" style="opacity: 1;"></path><path  d="M 625 1059 L 950 1059" id="v-1414" fill="none" style="cursor: auto; pointer-events: visiblepainted;"></path><g ><g id="v-1407"  label-idx="0" cursor="move" transform="matrix(1,0,0,1,787.5,1059)" style="cursor: default; opacity: 1;"><rect joint-selector="rect" id="v-1410" fill="#ffffff" rx="3" ry="3" pointer-events="none" width="146.80471801757812" height="62.710039138793945" transform="matrix(1,0,0,1,-73.4,-31.3)"></rect><text joint-selector="text" id="v-1409" font-size="24px" xml:space="preserve" y="0.8em" fill="#444444" text-anchor="middle" pointer-events="none" font-family="Open Sans, Tahoma, Arial" font-weight="normal" transform="matrix(1,0,0,1,0,-23.9)"><tspan dy="0" >Participan en</tspan><tspan dy="1.2em" x="0" >proyectos</tspan></text></g><g id="v-1408"  label-idx="1" cursor="move" transform="matrix(1,0,0,1,777.5,1085.4000244140625)" style="cursor: default; opacity: 1;"><rect joint-selector="rect" id="v-1412" fill="#ffffff" rx="3" ry="3"  width="0" height="0" transform="matrix(1,0,0,1,0,0)" display="none"></rect><text joint-selector="text" id="v-1411" fill="#000000" font-size="14" text-anchor="middle" pointer-events="none"></text></g></g><g  display="none" style="display: none;"></g><g  id="v-1417" display="none"><g  id="v-1405"><path  end="source" d="M 26 0 L 0 13 L 26 26 z"></path></g><g  id="v-1406"><path  end="target" d="M 26 0 L 0 13 L 26 26 z"></path></g></g><g  id="v-1416" display="none"><g  id="v-1404" transform="translate(665, 1059) "><g  event="remove"><circle r="11"></circle><path transform="scale(.8) translate(-16, -16)" d="M24.778,21.419 19.276,15.917 24.777,10.415 21.949,7.585 16.447,13.087 10.945,7.585 8.117,10.415 13.618,15.917 8.116,21.419 10.946,24.248 16.447,18.746 21.948,24.248z"></path><title>Remove link.</title></g><g  event="link:options"><circle r="11" transform="translate(25)"></circle><path fill="white" transform="scale(.55) translate(29, -16)" d="M31.229,17.736c0.064-0.571,0.104-1.148,0.104-1.736s-0.04-1.166-0.104-1.737l-4.377-1.557c-0.218-0.716-0.504-1.401-0.851-2.05l1.993-4.192c-0.725-0.91-1.549-1.734-2.458-2.459l-4.193,1.994c-0.647-0.347-1.334-0.632-2.049-0.849l-1.558-4.378C17.165,0.708,16.588,0.667,16,0.667s-1.166,0.041-1.737,0.105L12.707,5.15c-0.716,0.217-1.401,0.502-2.05,0.849L6.464,4.005C5.554,4.73,4.73,5.554,4.005,6.464l1.994,4.192c-0.347,0.648-0.632,1.334-0.849,2.05l-4.378,1.557C0.708,14.834,0.667,15.412,0.667,16s0.041,1.165,0.105,1.736l4.378,1.558c0.217,0.715,0.502,1.401,0.849,2.049l-1.994,4.193c0.725,0.909,1.549,1.733,2.459,2.458l4.192-1.993c0.648,0.347,1.334,0.633,2.05,0.851l1.557,4.377c0.571,0.064,1.148,0.104,1.737,0.104c0.588,0,1.165-0.04,1.736-0.104l1.558-4.377c0.715-0.218,1.399-0.504,2.049-0.851l4.193,1.993c0.909-0.725,1.733-1.549,2.458-2.458l-1.993-4.193c0.347-0.647,0.633-1.334,0.851-2.049L31.229,17.736zM16,20.871c-2.69,0-4.872-2.182-4.872-4.871c0-2.69,2.182-4.872,4.872-4.872c2.689,0,4.871,2.182,4.871,4.872C20.871,18.689,18.689,20.871,16,20.871z"></path><title>Link options.</title></g></g></g></g><!--z-index:26--><g   id="j_102" ><path  stroke="#444444" d="M 1363 909 L 1738 609" id="v-1430" stroke-width="2" stroke-dasharray="8 8" fill="none" style="opacity: 1;"></path><path  fill="black" stroke="black" d="M 0 0 0 0" transform="matrix(0.7808686753084834,-0.624695215222571,0.624695215222571,0.7808686753084834,1362.5,909)"></path><path  fill="#444444" stroke="#444444" d="M 20 0 L 0 10 L 20 20 z" id="v-1432" transform="matrix(-0.7808688416748546,0.6246950072646418,-0.6246950072646418,-0.7808688416748546,1743.7469226690826,616.8086865862896)" style="opacity: 1;"></path><path  d="M 1363 909 L 1738 609" id="v-1431" fill="none" style="cursor: auto; pointer-events: visiblepainted;"></path><g ><g id="v-1424"  label-idx="0" cursor="move" transform="matrix(1,0,0,1,1550.5,759)" style="cursor: default; opacity: 1;"><rect joint-selector="rect" id="v-1427" fill="#ffffff" rx="3" ry="3" pointer-events="none" width="182.2116241455078" height="62.710039138793945" transform="matrix(1,0,0,1,-89.8,-31.3)"></rect><text joint-selector="text" id="v-1426" font-size="24px" xml:space="preserve" y="0.8em" fill="#444444" text-anchor="middle" pointer-events="none" font-family="Open Sans, Tahoma, Arial" font-weight="normal" transform="matrix(1,0,0,1,0,-23.9)"><tspan dy="0" >Procesa pagos y</tspan><tspan dy="1.2em" x="0" >contribuciones</tspan></text></g><g id="v-1425"  label-idx="1" cursor="move" transform="matrix(1,0,0,1,1540.5,785.4000244140625)" style="cursor: default; opacity: 1;"><rect joint-selector="rect" id="v-1429" fill="#ffffff" rx="3" ry="3"  width="0" height="0" transform="matrix(1,0,0,1,0,0)" display="none"></rect><text joint-selector="text" id="v-1428" fill="#000000" font-size="14" text-anchor="middle" pointer-events="none"></text></g></g><g  display="none" style="display: none;"></g><g  id="v-1434" display="none"><g  id="v-1422"><path  end="source" d="M 26 0 L 0 13 L 26 26 z"></path></g><g  id="v-1423"><path  end="target" d="M 26 0 L 0 13 L 26 26 z"></path></g></g><g  id="v-1433" display="none"><g  id="v-1421" transform="translate(1394.2347523777212, 884.0121980978231) "><g  event="remove"><circle r="11"></circle><path transform="scale(.8) translate(-16, -16)" d="M24.778,21.419 19.276,15.917 24.777,10.415 21.949,7.585 16.447,13.087 10.945,7.585 8.117,10.415 13.618,15.917 8.116,21.419 10.946,24.248 16.447,18.746 21.948,24.248z"></path><title>Remove link.</title></g><g  event="link:options"><circle r="11" transform="translate(25)"></circle><path fill="white" transform="scale(.55) translate(29, -16)" d="M31.229,17.736c0.064-0.571,0.104-1.148,0.104-1.736s-0.04-1.166-0.104-1.737l-4.377-1.557c-0.218-0.716-0.504-1.401-0.851-2.05l1.993-4.192c-0.725-0.91-1.549-1.734-2.458-2.459l-4.193,1.994c-0.647-0.347-1.334-0.632-2.049-0.849l-1.558-4.378C17.165,0.708,16.588,0.667,16,0.667s-1.166,0.041-1.737,0.105L12.707,5.15c-0.716,0.217-1.401,0.502-2.05,0.849L6.464,4.005C5.554,4.73,4.73,5.554,4.005,6.464l1.994,4.192c-0.347,0.648-0.632,1.334-0.849,2.05l-4.378,1.557C0.708,14.834,0.667,15.412,0.667,16s0.041,1.165,0.105,1.736l4.378,1.558c0.217,0.715,0.502,1.401,0.849,2.049l-1.994,4.193c0.725,0.909,1.549,1.733,2.459,2.458l4.192-1.993c0.648,0.347,1.334,0.633,2.05,0.851l1.557,4.377c0.571,0.064,1.148,0.104,1.737,0.104c0.588,0,1.165-0.04,1.736-0.104l1.558-4.377c0.715-0.218,1.399-0.504,2.049-0.851l4.193,1.993c0.909-0.725,1.733-1.549,2.458-2.458l-1.993-4.193c0.347-0.647,0.633-1.334,0.851-2.049L31.229,17.736zM16,20.871c-2.69,0-4.872-2.182-4.872-4.871c0-2.69,2.182-4.872,4.872-4.872c2.689,0,4.871,2.182,4.871,4.872C20.871,18.689,18.689,20.871,16,20.871z"></path><title>Link options.</title></g></g></g></g><!--z-index:27--><g   id="j_103" ><path  stroke="#444444" d="M 1400 1059 L 1700 1059" id="v-1447" stroke-width="2" stroke-dasharray="8 8" fill="none" style="opacity: 1;"></path><path  fill="black" stroke="black" d="M 0 0 0 0" transform="matrix(1,0,0,1,1400,1059)"></path><path  fill="#444444" stroke="#444444" d="M 20 0 L 0 10 L 20 20 z" id="v-1449" transform="matrix(-1,1.2246467991473532e-16,-1.2246467991473532e-16,-1,1700,1069)" style="opacity: 1;"></path><path  d="M 1400 1059 L 1700 1059" id="v-1448" fill="none" style="cursor: auto; pointer-events: visiblepainted;"></path><g ><g id="v-1441"  label-idx="0" cursor="move" transform="matrix(1,0,0,1,1550,1059)" style="cursor: default; opacity: 1;"><rect joint-selector="rect" id="v-1444" fill="#ffffff" rx="3" ry="3" pointer-events="none" width="128.42237854003906" height="91.5100326538086" transform="matrix(1,0,0,1,-63,-45.7)"></rect><text joint-selector="text" id="v-1443" font-size="24px" xml:space="preserve" y="0.8em" fill="#444444" text-anchor="middle" pointer-events="none" font-family="Open Sans, Tahoma, Arial" font-weight="normal" transform="matrix(1,0,0,1,0,-38.3)"><tspan dy="0" >Almacena</tspan><tspan dy="1.2em" x="0" >imágenes y</tspan><tspan dy="1.2em" x="0" >archivos</tspan></text></g><g id="v-1442"  label-idx="1" cursor="move" transform="matrix(1,0,0,1,1540,1099.800048828125)" style="cursor: default; opacity: 1;"><rect joint-selector="rect" id="v-1446" fill="#ffffff" rx="3" ry="3"  width="0" height="0" transform="matrix(1,0,0,1,0,0)" display="none"></rect><text joint-selector="text" id="v-1445" fill="#000000" font-size="14" text-anchor="middle" pointer-events="none"></text></g></g><g  display="none" style="display: none;"></g><g  id="v-1451" display="none"><g  id="v-1439"><path  end="source" d="M 26 0 L 0 13 L 26 26 z"></path></g><g  id="v-1440"><path  end="target" d="M 26 0 L 0 13 L 26 26 z"></path></g></g><g  id="v-1450" display="none"><g  id="v-1438" transform="translate(1440.0000000000002, 1059) "><g  event="remove"><circle r="11"></circle><path transform="scale(.8) translate(-16, -16)" d="M24.778,21.419 19.276,15.917 24.777,10.415 21.949,7.585 16.447,13.087 10.945,7.585 8.117,10.415 13.618,15.917 8.116,21.419 10.946,24.248 16.447,18.746 21.948,24.248z"></path><title>Remove link.</title></g><g  event="link:options"><circle r="11" transform="translate(25)"></circle><path fill="white" transform="scale(.55) translate(29, -16)" d="M31.229,17.736c0.064-0.571,0.104-1.148,0.104-1.736s-0.04-1.166-0.104-1.737l-4.377-1.557c-0.218-0.716-0.504-1.401-0.851-2.05l1.993-4.192c-0.725-0.91-1.549-1.734-2.458-2.459l-4.193,1.994c-0.647-0.347-1.334-0.632-2.049-0.849l-1.558-4.378C17.165,0.708,16.588,0.667,16,0.667s-1.166,0.041-1.737,0.105L12.707,5.15c-0.716,0.217-1.401,0.502-2.05,0.849L6.464,4.005C5.554,4.73,4.73,5.554,4.005,6.464l1.994,4.192c-0.347,0.648-0.632,1.334-0.849,2.05l-4.378,1.557C0.708,14.834,0.667,15.412,0.667,16s0.041,1.165,0.105,1.736l4.378,1.558c0.217,0.715,0.502,1.401,0.849,2.049l-1.994,4.193c0.725,0.909,1.549,1.733,2.459,2.458l4.192-1.993c0.648,0.347,1.334,0.633,2.05,0.851l1.557,4.377c0.571,0.064,1.148,0.104,1.737,0.104c0.588,0,1.165-0.04,1.736-0.104l1.558-4.377c0.715-0.218,1.399-0.504,2.049-0.851l4.193,1.993c0.909-0.725,1.733-1.549,2.458-2.458l-1.993-4.193c0.347-0.647,0.633-1.334,0.851-2.049L31.229,17.736zM16,20.871c-2.69,0-4.872-2.182-4.872-4.871c0-2.69,2.182-4.872,4.872-4.872c2.689,0,4.871,2.182,4.871,4.872C20.871,18.689,18.689,20.871,16,20.871z"></path><title>Link options.</title></g></g></g></g><!--z-index:28--><g   id="j_104" ><path  stroke="#444444" d="M 1363 1209 L 1738 1509" id="v-1464" stroke-width="2" stroke-dasharray="8 8" fill="none" style="opacity: 1;"></path><path  fill="black" stroke="black" d="M 0 0 0 0" transform="matrix(0.7808688000832672,0.624695059254128,-0.624695059254128,0.7808688000832672,1362.5,1209)"></path><path  fill="#444444" stroke="#444444" d="M 20 0 L 0 10 L 20 20 z" id="v-1466" transform="matrix(-0.7808688416748548,-0.6246950072646416,0.6246950072646416,-0.7808688416748548,1731.2530225237897,1516.8086902472076)" style="opacity: 1;"></path><path  d="M 1363 1209 L 1738 1509" id="v-1465" fill="none" style="cursor: auto; pointer-events: visiblepainted;"></path><g ><g id="v-1458"  label-idx="0" cursor="move" transform="matrix(1,0,0,1,1550.5,1359)" style="cursor: default; opacity: 1;"><rect joint-selector="rect" id="v-1461" fill="#ffffff" rx="3" ry="3" pointer-events="none" width="150.854248046875" height="62.710039138793945" transform="matrix(1,0,0,1,-75.4,-31.3)"></rect><text joint-selector="text" id="v-1460" font-size="24px" xml:space="preserve" y="0.8em" fill="#444444" text-anchor="middle" pointer-events="none" font-family="Open Sans, Tahoma, Arial" font-weight="normal" transform="matrix(1,0,0,1,0,-23.9)"><tspan dy="0" >Gestiona</tspan><tspan dy="1.2em" x="0" >autenticación</tspan></text></g><g id="v-1459"  label-idx="1" cursor="move" transform="matrix(1,0,0,1,1540.5,1385.4000244140625)" style="cursor: default; opacity: 1;"><rect joint-selector="rect" id="v-1463" fill="#ffffff" rx="3" ry="3"  width="0" height="0" transform="matrix(1,0,0,1,0,0)" display="none"></rect><text joint-selector="text" id="v-1462" fill="#000000" font-size="14" text-anchor="middle" pointer-events="none"></text></g></g><g  display="none" style="display: none;"></g><g  id="v-1468" display="none"><g  id="v-1456"><path  end="source" d="M 26 0 L 0 13 L 26 26 z"></path></g><g  id="v-1457"><path  end="target" d="M 26 0 L 0 13 L 26 26 z"></path></g></g><g  id="v-1467" display="none"><g  id="v-1455" transform="translate(1394.2347523777212, 1233.987801902177) "><g  event="remove"><circle r="11"></circle><path transform="scale(.8) translate(-16, -16)" d="M24.778,21.419 19.276,15.917 24.777,10.415 21.949,7.585 16.447,13.087 10.945,7.585 8.117,10.415 13.618,15.917 8.116,21.419 10.946,24.248 16.447,18.746 21.948,24.248z"></path><title>Remove link.</title></g><g  event="link:options"><circle r="11" transform="translate(25)"></circle><path fill="white" transform="scale(.55) translate(29, -16)" d="M31.229,17.736c0.064-0.571,0.104-1.148,0.104-1.736s-0.04-1.166-0.104-1.737l-4.377-1.557c-0.218-0.716-0.504-1.401-0.851-2.05l1.993-4.192c-0.725-0.91-1.549-1.734-2.458-2.459l-4.193,1.994c-0.647-0.347-1.334-0.632-2.049-0.849l-1.558-4.378C17.165,0.708,16.588,0.667,16,0.667s-1.166,0.041-1.737,0.105L12.707,5.15c-0.716,0.217-1.401,0.502-2.05,0.849L6.464,4.005C5.554,4.73,4.73,5.554,4.005,6.464l1.994,4.192c-0.347,0.648-0.632,1.334-0.849,2.05l-4.378,1.557C0.708,14.834,0.667,15.412,0.667,16s0.041,1.165,0.105,1.736l4.378,1.558c0.217,0.715,0.502,1.401,0.849,2.049l-1.994,4.193c0.725,0.909,1.549,1.733,2.459,2.458l4.192-1.993c0.648,0.347,1.334,0.633,2.05,0.851l1.557,4.377c0.571,0.064,1.148,0.104,1.737,0.104c0.588,0,1.165-0.04,1.736-0.104l1.558-4.377c0.715-0.218,1.399-0.504,2.049-0.851l4.193,1.993c0.909-0.725,1.733-1.549,2.458-2.458l-1.993-4.193c0.347-0.647,0.633-1.334,0.851-2.049L31.229,17.736zM16,20.871c-2.69,0-4.872-2.182-4.872-4.871c0-2.69,2.182-4.872,4.872-4.872c2.689,0,4.871,2.182,4.871,4.872C20.871,18.689,18.689,20.871,16,20.871z"></path><title>Link options.</title></g></g></g></g><!--z-index:29--><g   id="j_105" ><path  stroke="#444444" d="M 598 1559 L 1002 1209" id="v-1481" stroke-width="2" stroke-dasharray="8 8" fill="none" style="opacity: 1;"></path><path  fill="black" stroke="black" d="M 0 0 0 0" transform="matrix(0.7556840278922284,-0.6549363709465048,0.6549363709465048,0.7556840278922284,598.0800170898438,1559)"></path><path  fill="#444444" stroke="#444444" d="M 20 0 L 0 10 L 20 20 z" id="v-1483" transform="matrix(-0.7556842023123078,0.6549361696956514,-0.6549361696956514,-0.7556842023123078,1008.4693628997671,1216.5567967324166)" style="opacity: 1;"></path><path  d="M 598 1559 L 1002 1209" id="v-1482" fill="none" style="cursor: auto; pointer-events: visiblepainted;"></path><g ><g id="v-1475"  label-idx="0" cursor="move" transform="matrix(1,0,0,1,800,1384)" style="cursor: default; opacity: 1;"><rect joint-selector="rect" id="v-1478" fill="#ffffff" rx="3" ry="3" pointer-events="none" width="171.6695556640625" height="91.5100326538086" transform="matrix(1,0,0,1,-85.8,-45.7)"></rect><text joint-selector="text" id="v-1477" font-size="24px" xml:space="preserve" y="0.8em" fill="#444444" text-anchor="middle" pointer-events="none" font-family="Open Sans, Tahoma, Arial" font-weight="normal" transform="matrix(1,0,0,1,0,-38.3)"><tspan dy="0" >Envía métricas</tspan><tspan dy="1.2em" x="0" >ambientales en</tspan><tspan dy="1.2em" x="0" >tiempo real</tspan></text></g><g id="v-1476"  label-idx="1" cursor="move" transform="matrix(1,0,0,1,790,1424.800048828125)" style="cursor: default; opacity: 1;"><rect joint-selector="rect" id="v-1480" fill="#ffffff" rx="3" ry="3"  width="0" height="0" transform="matrix(1,0,0,1,0,0)" display="none"></rect><text joint-selector="text" id="v-1479" fill="#000000" font-size="14" text-anchor="middle" pointer-events="none"></text></g></g><g  display="none" style="display: none;"></g><g  id="v-1485" display="none"><g  id="v-1473"><path  end="source" d="M 26 0 L 0 13 L 26 26 z"></path></g><g  id="v-1474"><path  end="target" d="M 26 0 L 0 13 L 26 26 z"></path></g></g><g  id="v-1484" display="none"><g  id="v-1472" transform="translate(628.2325009877666, 1532.808476867034) "><g  event="remove"><circle r="11"></circle><path transform="scale(.8) translate(-16, -16)" d="M24.778,21.419 19.276,15.917 24.777,10.415 21.949,7.585 16.447,13.087 10.945,7.585 8.117,10.415 13.618,15.917 8.116,21.419 10.946,24.248 16.447,18.746 21.948,24.248z"></path><title>Remove link.</title></g><g  event="link:options"><circle r="11" transform="translate(25)"></circle><path fill="white" transform="scale(.55) translate(29, -16)" d="M31.229,17.736c0.064-0.571,0.104-1.148,0.104-1.736s-0.04-1.166-0.104-1.737l-4.377-1.557c-0.218-0.716-0.504-1.401-0.851-2.05l1.993-4.192c-0.725-0.91-1.549-1.734-2.458-2.459l-4.193,1.994c-0.647-0.347-1.334-0.632-2.049-0.849l-1.558-4.378C17.165,0.708,16.588,0.667,16,0.667s-1.166,0.041-1.737,0.105L12.707,5.15c-0.716,0.217-1.401,0.502-2.05,0.849L6.464,4.005C5.554,4.73,4.73,5.554,4.005,6.464l1.994,4.192c-0.347,0.648-0.632,1.334-0.849,2.05l-4.378,1.557C0.708,14.834,0.667,15.412,0.667,16s0.041,1.165,0.105,1.736l4.378,1.558c0.217,0.715,0.502,1.401,0.849,2.049l-1.994,4.193c0.725,0.909,1.549,1.733,2.459,2.458l4.192-1.993c0.648,0.347,1.334,0.633,2.05,0.851l1.557,4.377c0.571,0.064,1.148,0.104,1.737,0.104c0.588,0,1.165-0.04,1.736-0.104l1.558-4.377c0.715-0.218,1.399-0.504,2.049-0.851l4.193,1.993c0.909-0.725,1.733-1.549,2.458-2.458l-1.993-4.193c0.347-0.647,0.633-1.334,0.851-2.049L31.229,17.736zM16,20.871c-2.69,0-4.872-2.182-4.872-4.871c0-2.69,2.182-4.872,4.872-4.872c2.689,0,4.871,2.182,4.871,4.872C20.871,18.689,18.689,20.871,16,20.871z"></path><title>Link options.</title></g></g></g></g><!--z-index:30--><!--z-index:31--><!--z-index:32--><!--z-index:33--><!--z-index:34--><!--z-index:35--><!--z-index:36--><!--z-index:37--><!--z-index:38--><!--z-index:39--><!--z-index:40--><!--z-index:41--><!--z-index:42--><!--z-index:43--><!--z-index:44--><!--z-index:45--><!--z-index:46--><!--z-index:47--><!--z-index:48--><!--z-index:49--><!--z-index:50--><!--z-index:51--><!--z-index:52--><!--z-index:53--><!--z-index:54--><!--z-index:55--><!--z-index:56--><!--z-index:57--><!--z-index:58--><!--z-index:59--><!--z-index:60--><!--z-index:61--><!--z-index:62--><!--z-index:63--><!--z-index:64--><!--z-index:65--><!--z-index:66--><!--z-index:67--><!--z-index:68--><!--z-index:69--><!--z-index:70--><!--z-index:71--><!--z-index:72--><!--z-index:73--><!--z-index:74--><!--z-index:75--><!--z-index:76--><!--z-index:77--><!--z-index:78--><!--z-index:79--><!--z-index:80--><!--z-index:81--><!--z-index:82--><!--z-index:83--><!--z-index:84--><!--z-index:85--><!--z-index:86--><!--z-index:87--><!--z-index:88--><!--z-index:89--><!--z-index:90--><!--z-index:91--><!--z-index:92--><!--z-index:93--><!--z-index:94--><!--z-index:95--><!--z-index:96--><!--z-index:97--><!--z-index:98--><!--z-index:99--><!--z-index:100--><!--z-index:101--><!--z-index:102--><!--z-index:103--><!--z-index:104--><!--z-index:105--><!--z-index:106--><!--z-index:107--><!--z-index:108--><!--z-index:109--><!--z-index:110--><!--z-index:111--><!--z-index:112--><!--z-index:113--><!--z-index:114--><!--z-index:115--><!--z-index:116--><!--z-index:117--><!--z-index:118--><!--z-index:119--><!--z-index:120--><!--z-index:121--><!--z-index:122--><!--z-index:123--><!--z-index:124--><!--z-index:125--><!--z-index:126--><!--z-index:127--></g><g ></g><g ></g><g ></g></g></svg>